PathFileType	4	(X/Y/Z)	C:\Users\dbl\Desktop\LZH\BX\bx_y_5_901.trc
DataRate	CameraRate	NumFrames	NumMarkers	Units	OrigDataRate	OrigDataStartFrame	OrigNumFrames
50.00	50.00	      8	43	mm	50.00	782	      1562
Frame#	Time	Top.Head			R.Acromium			L.Acromium			Sternum			R.ASIS			L.ASIS			V.Sacral			R.Thigh.Upper			R.Thigh.Front			R.Thigh.Rear			R.Knee.Lat			R.Knee.Med			R.Shank.Upper			R.Shank.Front			R.Shank.Rear			R.Ankle.Lat			R.Midfoot.Lat			R.Toe.Lat			R.Toe.Tip			R.Toe.Med			R.Ankle.Med			R.Midfoot.Sup			R.Heel			L.Thigh.Upper			L.Thigh.Front			L.Thigh.Rear			L.Knee.Lat			L.Knee.Med			L.Shank.Upper			L.Shank.Front			L.Shank.Rear			L.Ankle.Lat			L.Midfoot.Lat			L.Toe.Lat			L.Toe.Tip			L.Toe.Med			L.Ankle.Med			L.Midfoot.Sup			L.Heel			origin1 front left			origin2 front right			origin 3 back right			origin 4 back leftt			
		X1	Y1	Z1	X2	Y2	Z2	X3	Y3	Z3	X4	Y4	Z4	X5	Y5	Z5	X6	Y6	Z6	X7	Y7	Z7	X8	Y8	Z8	X9	Y9	Z9	X10	Y10	Z10	X11	Y11	Z11	X12	Y12	Z12	X13	Y13	Z13	X14	Y14	Z14	X15	Y15	Z15	X16	Y16	Z16	X17	Y17	Z17	X18	Y18	Z18	X19	Y19	Z19	X20	Y20	Z20	X21	Y21	Z21	X22	Y22	Z22	X23	Y23	Z23	X24	Y24	Z24	X25	Y25	Z25	X26	Y26	Z26	X27	Y27	Z27	X28	Y28	Z28	X29	Y29	Z29	X30	Y30	Z30	X31	Y31	Z31	X32	Y32	Z32	X33	Y33	Z33	X34	Y34	Z34	X35	Y35	Z35	X36	Y36	Z36	X37	Y37	Z37	X38	Y38	Z38	X39	Y39	Z39	X40	Y40	Z40	X41	Y41	Z41	X42	Y42	Z42	X43	Y43	Z43	

782	15.620	-713.91864	252.66187	1833.21118	-652.62653	59.52502	1525.88184	-625.33740	450.73218	1534.33789	-545.26935	261.20508	1397.01025	-566.85272	129.94147	1061.54236	-560.91125	396.16153	1074.11096	-768.89429	255.73044	1020.35248	-591.10004	93.05924	897.39886	-545.56909	154.36832	846.49933	-641.73950	89.69108	750.12506	-659.06824	123.55759	609.14819	-647.66754	231.78442	563.51227	-698.13702	122.85235	541.98932	-614.69031	173.26550	547.78082	-735.64044	127.61701	473.90564	-688.51947	145.45309	213.51189	-614.90808	80.15860	165.62241	-569.28296	55.36373	162.48859	-491.14966	98.72578	162.49454	-530.70477	148.32053	166.25232	-634.39502	217.84322	220.44380	-592.37366	189.68956	171.21259	-716.43658	214.69060	169.16306	-586.14142	434.54178	884.03485	-542.21063	374.12683	839.94537	-635.49835	439.52115	751.74951	-666.56812	414.69180	629.18304	-632.69775	309.44583	579.40387	-673.60986	411.37158	564.38458	-620.95337	369.61139	542.73914	-724.43622	417.81369	511.46136	-680.61975	416.48334	212.38156	-583.34259	468.75378	165.50755	-543.71649	477.33542	160.22934	-480.41153	428.32773	167.10793	-524.78839	387.43460	178.01691	-645.01208	328.63788	207.61086	-595.71332	350.08191	168.03239	-732.99829	346.14160	164.46533	-443.78308	449.06824	147.29501	-450.41711	75.87283	143.61711	-806.20477	82.48029	142.71906	-799.70667	457.76343	145.21132	
783	15.640	-711.09460	252.34030	1833.57349	-651.12262	59.33315	1526.11572	-623.59674	450.52402	1534.58081	-544.59167	261.04376	1396.63843	-568.54388	131.24699	1060.82129	-562.31323	395.91403	1074.15015	-770.69208	255.83992	1020.74066	-592.92261	92.89645	897.56006	-547.34259	154.00513	846.52521	-643.76746	89.61480	750.13440	-660.65582	123.42680	609.09735	-648.54443	231.54413	563.37817	-699.37915	122.82717	541.82190	-615.76080	172.85092	547.74164	-736.65765	127.71516	473.65601	-688.72717	145.26352	213.44145	-614.97394	80.05225	165.49934	-569.25922	55.34846	162.43802	-491.29956	98.71201	162.59315	-530.78510	148.19962	166.40385	-634.61597	217.56224	220.50165	-592.30096	189.67496	171.60652	-716.48297	214.55194	169.16180	-587.82233	434.58237	884.02881	-543.91608	374.29190	839.93103	-636.90405	439.38391	752.24231	-667.82623	414.79987	629.07678	-633.70734	309.53201	579.31177	-674.63135	411.52960	564.25183	-621.88818	369.78839	542.79736	-725.25494	417.96942	511.22607	-680.61060	416.64206	212.43634	-583.32501	468.72607	165.53009	-543.71027	477.32413	160.24364	-480.45752	428.32193	167.16338	-524.78320	387.45743	178.08124	-644.92712	328.71027	207.77184	-595.69244	350.11176	168.13969	-732.94922	346.19226	164.45807	-443.77402	449.06265	147.29568	-450.41632	75.87482	143.61201	-806.20374	82.48392	142.72504	-799.71777	457.72876	145.22136	
784	15.660	-707.60046	252.03680	1833.92212	-649.18671	59.12444	1526.34277	-621.39197	450.30328	1534.78674	-543.67645	260.87585	1396.13281	-570.39362	132.56644	1060.13489	-563.95032	395.70776	1074.17737	-772.77838	256.01883	1021.22479	-595.06067	92.74416	897.71204	-549.47235	153.65799	846.52155	-646.17004	89.53311	750.13531	-662.53223	123.29774	609.04651	-649.60400	231.27896	563.22937	-700.85199	122.81393	541.63776	-617.03613	172.40440	547.70099	-737.84662	127.81898	473.37402	-688.95441	145.07544	213.35263	-615.05713	79.92129	165.36855	-569.25293	55.30188	162.39066	-491.46268	98.71636	162.68552	-530.87500	148.07069	166.56715	-634.82886	217.29974	220.60432	-592.26208	189.63249	171.99385	-716.54089	214.39412	169.15331	-589.78577	434.67545	884.02350	-545.91296	374.46906	839.88879	-638.79553	439.48801	752.68860	-669.32141	414.94742	628.96027	-634.94495	309.63535	579.22498	-675.86572	411.72046	564.12079	-623.03015	369.99170	542.86884	-726.26044	418.15729	510.95340	-680.61456	416.86932	212.53328	-583.32190	468.71933	165.53543	-543.70703	477.32336	160.24776	-480.52084	428.31268	167.21573	-524.79419	387.50018	178.15800	-644.84766	328.79980	207.95323	-595.67639	350.14172	168.27237	-732.90088	346.26913	164.46092	-443.76508	449.05402	147.29294	-450.41516	75.87409	143.60933	-806.20239	82.48624	142.73131	-799.73615	457.68637	145.22729	
785	15.680	-703.35870	251.74150	1834.24744	-646.79089	58.89836	1526.53540	-618.72644	450.06381	1534.92969	-542.51971	260.70483	1395.47107	-572.40680	133.89415	1059.48767	-565.83569	395.54453	1074.18787	-775.15015	256.26535	1021.79443	-597.51508	92.61374	897.84308	-551.96130	153.34456	846.49744	-648.91962	89.45358	750.12421	-664.67542	123.17959	608.99005	-650.84589	230.99843	563.06152	-702.54388	122.81696	541.43726	-618.50885	171.94244	547.66748	-739.19965	127.92780	473.06418	-689.20300	144.89137	213.24878	-615.15784	79.76938	165.23477	-569.26611	55.22469	162.34575	-491.63858	98.74057	162.77005	-530.97467	147.93501	166.74319	-635.02899	217.05971	220.75414	-592.26990	189.55449	172.36183	-716.60876	214.22346	169.14235	-592.03119	434.82028	884.01709	-548.19073	374.64868	839.82886	-641.17938	439.86667	753.05933	-671.04083	415.13196	628.83240	-636.40149	309.75720	579.15015	-677.30353	411.93924	563.98761	-624.37091	370.21643	542.95081	-727.44702	418.37836	510.64233	-680.63293	417.16193	212.66417	-583.33221	468.73267	165.52275	-543.70654	477.33313	160.24275	-480.60406	428.29950	167.26587	-524.82367	387.56445	178.24496	-644.78528	328.90836	208.14400	-595.66797	350.17212	168.42715	-732.85449	346.37262	164.46527	-443.75861	449.04312	147.28629	-450.41397	75.87102	143.60947	-806.20056	82.48665	142.73680	-799.75958	457.64093	145.22743	
786	15.700	-698.29352	251.44138	1834.53687	-643.91669	58.65498	1526.66260	-615.61389	449.79849	1534.97717	-541.12823	260.53485	1394.62488	-574.59039	135.21933	1058.88269	-567.97510	395.41974	1074.17114	-777.79578	256.57156	1022.43243	-600.27710	92.51384	897.94617	-554.80164	153.07770	846.46948	-651.97028	89.38671	750.09491	-667.05042	123.08190	608.92114	-652.26648	230.71829	562.87012	-704.43396	122.84109	541.22052	-620.16571	171.48398	547.64838	-740.70459	128.04135	472.73129	-689.47571	144.71265	213.13396	-615.27435	79.60301	165.10223	-569.29883	55.12275	162.30066	-491.82913	98.78188	162.84987	-531.08496	147.79234	166.93466	-635.21960	216.83676	220.94739	-592.33075	189.43967	172.70451	-716.68445	214.04912	169.13304	-594.55139	435.01190	884.00574	-550.73334	374.81961	839.76025	-643.98529	440.49243	753.36292	-672.96411	415.35007	628.69257	-638.06256	309.89841	579.08875	-678.92792	412.17911	563.84650	-625.89453	370.45670	543.04010	-728.80164	418.63333	510.29269	-680.66766	417.50653	212.81641	-583.35370	468.76349	165.49271	-543.70898	477.35226	160.23062	-480.70871	428.28384	167.31560	-524.87238	387.65073	178.33873	-644.75116	329.03809	208.33208	-595.66852	350.20480	168.59970	-732.81299	346.49875	164.46150	-443.75729	449.03119	147.27589	-450.41324	75.86652	143.61256	-806.19843	82.48494	142.74049	-799.78381	457.59836	145.22261	
787	15.720	-692.33496	251.12242	1834.77295	-640.55499	58.39438	1526.69214	-612.07410	449.50073	1534.89258	-539.51843	260.36957	1393.55933	-576.95447	136.52554	1058.32031	-570.36902	395.32510	1074.10938	-780.69897	256.92194	1023.11664	-603.32684	92.44936	898.02081	-557.97223	152.86427	846.45819	-655.26141	89.34293	750.04016	-669.61194	123.01274	608.83319	-653.85864	230.45740	562.65259	-706.49329	122.88952	540.98724	-621.98743	171.04883	547.64795	-742.34460	128.15828	472.37933	-689.77417	144.54004	213.01149	-615.40271	79.43097	164.97443	-569.34967	55.00608	162.25203	-492.03714	98.83378	162.93161	-531.20667	147.64203	167.14417	-635.41058	216.61971	221.17525	-592.44427	189.29416	173.02106	-716.76569	213.88170	169.12762	-597.33417	435.24118	883.98401	-553.52197	374.97064	839.69000	-647.10040	441.29654	753.61859	-675.06592	415.59702	628.54004	-639.91046	310.05881	579.03680	-680.71637	412.43210	563.69104	-627.57965	370.70596	543.13330	-730.30585	418.92133	509.90536	-680.72156	417.88171	212.97627	-583.38330	468.80826	165.44743	-543.71466	477.37894	160.21379	-480.83432	428.26907	167.36755	-524.93921	387.75775	178.43512	-644.75439	329.19119	208.50563	-595.67761	350.24289	168.78503	-732.78076	346.63922	164.44147	-443.76343	449.01956	147.26247	-450.41324	75.86179	143.61841	-806.19611	82.48141	142.74178	-799.80347	457.56519	145.21623	
788	15.740	-685.42285	250.77188	1834.93140	-636.70569	58.11636	1526.59070	-608.12805	449.16623	1534.63684	-537.71423	260.21060	1392.23303	-579.51263	137.79150	1057.79810	-573.01563	395.25192	1073.97998	-783.84399	257.29327	1023.82202	-606.63367	92.42147	898.07172	-561.43573	152.70457	846.48383	-658.72339	89.32965	749.95380	-672.30768	122.97686	608.72125	-655.61139	230.23335	562.40997	-708.68585	122.96183	540.73700	-623.94940	170.65569	547.66760	-744.09808	128.27483	472.01068	-690.09753	144.37434	212.88287	-615.53668	79.26312	164.85411	-569.41589	54.88676	162.19714	-492.26477	98.88792	163.02295	-531.33972	147.48457	167.37202	-635.61475	216.39658	221.42567	-592.60492	189.13089	173.31241	-716.85077	213.73120	169.12601	-600.36530	435.49536	883.94470	-556.53680	375.09265	839.62347	-650.40308	442.19092	753.83612	-677.31812	415.86642	628.37402	-641.92554	310.23663	578.98633	-682.64337	412.69009	563.51556	-629.40198	370.95758	543.22687	-731.93738	419.23920	509.48254	-680.79767	418.26178	213.13258	-583.41803	468.86298	165.39034	-543.72382	477.41071	160.19458	-480.97760	428.25964	167.42487	-525.02142	387.88220	178.52940	-644.80048	329.36917	208.65472	-595.69427	350.29025	168.97781	-732.76245	346.78296	164.40059	-443.77817	449.00958	147.24693	-450.41415	75.85802	143.62643	-806.19366	82.47678	142.74052	-799.81226	457.54813	145.21352	
789	15.760	-677.50867	250.38039	1834.97961	-632.37628	57.82074	1526.32397	-603.79468	448.79431	1534.17126	-535.74402	260.05652	1390.60144	-582.28143	138.99338	1057.30908	-575.91339	395.19366	1073.76086	-787.21997	257.65591	1024.52368	-610.15930	92.42860	898.10626	-565.13843	152.59248	846.56152	-662.28455	89.34906	749.83191	-675.08331	122.97453	608.58276	-657.50928	230.05853	562.14789	-710.97156	123.05289	540.46960	-626.02258	170.32001	547.70563	-745.93890	128.38423	471.62561	-690.44092	144.21638	212.74751	-615.66888	79.10887	164.74348	-569.49377	54.77641	162.13519	-492.51132	98.93668	163.12947	-531.48218	147.32292	167.61433	-635.84442	216.15945	221.68550	-592.80414	188.96712	173.57793	-716.93842	213.60492	169.12598	-603.63068	435.75958	883.88013	-559.75903	375.18112	839.56445	-653.78925	443.08789	754.00818	-679.69318	416.14984	628.19342	-644.08673	310.42780	578.92889	-684.68304	412.94565	563.31677	-631.33691	371.20544	543.31744	-733.67340	419.58057	509.02762	-680.89893	418.62177	213.27930	-583.45520	468.92365	165.32555	-543.73657	477.44507	160.17476	-481.13232	428.25989	167.49046	-525.11511	388.01868	178.61691	-644.89038	329.57205	208.77338	-595.71777	350.35077	169.17256	-732.76141	346.91800	164.33923	-443.80133	449.00229	147.23027	-450.41602	75.85615	143.63565	-806.19122	82.47196	142.73718	-799.80457	457.55304	145.22012	
